<?xml version="1.0" encoding="UTF-8"?>
<svg width="216px" height="69px" viewBox="0 0 216 69" version="1.1" xmlns="http://www.w3.org/2000/svg" xmlns:xlink="http://www.w3.org/1999/xlink">
    <!-- Generator: Sketch 54.1 (76490) - https://sketchapp.com -->
    <title>Untitled 2@2x</title>
    <desc>Created with Sketch.</desc>
    <g id="Page-1" stroke="none" stroke-width="1" fill="none" fill-rule="evenodd">
        <g id="logo_white" fill="#FFFFFF" fill-rule="nonzero">
            <path d="M57.724,14.434 L34.451,0.999 C32.145,-0.332 29.305,-0.332 26.999,0.999 L3.726,14.434 C1.421,15.766 0,18.226 0,20.888 L0,47.761 C0,50.423 1.421,52.883 3.726,54.214 L26.999,67.652 C29.305,68.983 32.145,68.983 34.451,67.652 L57.724,54.214 C60.029,52.883 61.449,50.423 61.449,47.761 L61.449,20.888 C61.449,18.226 60.029,15.766 57.724,14.434 L57.724,14.434 Z M55.488,47.059 C55.488,47.858 55.062,48.596 54.37,48.996 L48.925,52.14 C48.233,52.539 47.381,52.539 46.689,52.14 L41.243,48.996 C40.552,48.597 40.126,47.858 40.126,47.059 L40.126,40.771 C40.126,39.972 40.552,39.235 41.243,38.835 L46.689,35.691 C47.381,35.292 48.233,35.292 48.925,35.691 L54.37,38.835 C55.062,39.234 55.488,39.972 55.488,40.771 L55.488,47.059 Z" id="Shape"></path>
        </g>
        <text id="Expected" font-family="ProductSans-Regular, Product Sans" font-size="30" font-weight="normal" letter-spacing="2.53846192" fill="#FFFFFF">
            <tspan x="76" y="45">Expected</tspan>
        </text>
    </g>
</svg>